# xmcd CD database file
#
# Track frame offsets:
#	182
#	12790
#	27632
#	42260
#	55010
#	70147
#	83932
#	98430
#	112152
#	125432
#	139455
#	154827
#	170107
#	185852
#	199482
#	213172
#	227835
#	241842
#	257045
#	271960
#
# Disc length: 3792 seconds
#
# Revision: 0
# Processed by: cddbd v1.5.1PL0 Copyright (c) Steve Scherf et al.
# Submitted via: CDex 1.51
#
DISCID=270ece14
DTITLE=Benny Goodman and Charlie Christian - flying home
DYEAR=1941
DGENRE=Jazz
TTITLE0=Rose room
TTITLE1=Flying home
TTITLE2=Star dust
TTITLE3=Shivers
TTITLE4=The sheik of Araby
TTITLE5=I surrender dear
TTITLE6=Memories of you
TTITLE7=Honeysuckle Rose
TTITLE8=I found a new baby
TTITLE9=Bennys bugle
TTITLE10=I can´t give you anything but love
TTITLE11=As long as I live
TTITLE12=On the Alamo
TTITLE13=Wholly cats
TTITLE14=Till Tom special
TTITLE15=Gone with 'what' wind
TTITLE16=Breakfast feud
TTITLE17=Air mail special
TTITLE18=A smo-o-o-oth one
TTITLE19=Seven come eleven
EXTD=YEAR: 1941
EXTT0=
EXTT1=
EXTT2=
EXTT3=
EXTT4=
EXTT5=
EXTT6=
EXTT7=
EXTT8=
EXTT9=
EXTT10=
EXTT11=
EXTT12=
EXTT13=
EXTT14=
EXTT15=
EXTT16=
EXTT17=
EXTT18=
EXTT19=
PLAYORDER=
